<?xml version="1.0" encoding="UTF-8" standalone="no"?>
<!-- Created with Inkscape (http://www.inkscape.org/) -->

<svg
   xmlns:dc="http://purl.org/dc/elements/1.1/"
   xmlns:cc="http://creativecommons.org/ns#"
   xmlns:rdf="http://www.w3.org/1999/02/22-rdf-syntax-ns#"
   xmlns:svg="http://www.w3.org/2000/svg"
   xmlns="http://www.w3.org/2000/svg"
   xmlns:sodipodi="http://sodipodi.sourceforge.net/DTD/sodipodi-0.dtd"
   xmlns:inkscape="http://www.inkscape.org/namespaces/inkscape"
   width="256"
   height="64"
   id="svg3756"
   version="1.1"
   inkscape:version="0.48.4 r9939"
   sodipodi:docname="arrows.svg"
   inkscape:export-filename="C:\dev\TuxRacer-SDL2\src\graphics\arrows.png"
   inkscape:export-xdpi="90"
   inkscape:export-ydpi="90">
  <defs
     id="defs3758" />
  <sodipodi:namedview
     id="base"
     pagecolor="#ffffff"
     bordercolor="#666666"
     borderopacity="1.0"
     inkscape:pageopacity="0.0"
     inkscape:pageshadow="2"
     inkscape:zoom="5.8846552"
     inkscape:cx="173.71642"
     inkscape:cy="51.048692"
     inkscape:current-layer="layer1"
     showgrid="true"
     inkscape:document-units="px"
     inkscape:grid-bbox="true"
     inkscape:window-width="1600"
     inkscape:window-height="878"
     inkscape:window-x="-8"
     inkscape:window-y="-8"
     inkscape:window-maximized="1" />
  <metadata
     id="metadata3761">
    <rdf:RDF>
      <cc:Work
         rdf:about="">
        <dc:format>image/svg+xml</dc:format>
        <dc:type
           rdf:resource="http://purl.org/dc/dcmitype/StillImage" />
        <dc:title></dc:title>
      </cc:Work>
    </rdf:RDF>
  </metadata>
  <g
     id="layer1"
     inkscape:label="Layer 1"
     inkscape:groupmode="layer">
    <path
       style="fill:#ffffff;fill-opacity:1;stroke:#000000;stroke-width:4;stroke-miterlimit:4;stroke-opacity:1;stroke-dasharray:none"
       d="M 186.7692,32.230475 172.74746,18.681694 158.6979,5.1050917 l 0,13.8826303 -15.05111,0 0,26.485505 15.05111,0 0,13.854819 14.04956,-13.548791 14.02174,-13.54878 z"
       id="path2994-7"
       inkscape:connector-curvature="0" />
    <path
       style="fill:#ffffff;fill-opacity:1;stroke:#000000;stroke-width:4;stroke-miterlimit:4;stroke-opacity:1;stroke-dasharray:none"
       d="m 201.05167,32.230476 14.02174,-13.548781 14.04956,-13.5766036 0,13.8826316 15.05111,0 0,26.485505 -15.05111,0 0,13.854818 -14.04956,-13.54879 -14.02174,-13.54878 z"
       id="path2994-7-0"
       inkscape:connector-curvature="0" />
    <path
       style="fill:#ffffff;fill-opacity:1;stroke:#000000;stroke-width:4;stroke-miterlimit:4;stroke-opacity:1;stroke-dasharray:none"
       d="m 32.613326,54.463378 13.548781,-14.021744 13.576603,-14.04956 -13.882631,0 0,-15.05111 -26.485505,0 0,15.05111 -13.854818,0 13.54879,14.04956 13.54878,14.021744 z"
       id="path2994-7-9"
       inkscape:connector-curvature="0" />
    <path
       style="fill:#ffffff;fill-opacity:1;stroke:#000000;stroke-width:4;stroke-miterlimit:4;stroke-opacity:1;stroke-dasharray:none"
       d="m 97.52792,11.340964 13.54878,14.021744 13.57661,14.04956 -13.88264,0 0,15.05111 -26.4855,0 0,-15.05111 -13.85482,0 13.54879,-14.04956 13.54878,-14.021744 z"
       id="path2994-7-9-4"
       inkscape:connector-curvature="0" />
  </g>
</svg>
